<svg width="32" height="32" viewBox="0 0 32 32" fill="none" xmlns="http://www.w3.org/2000/svg">
<path fill-rule="evenodd" clip-rule="evenodd" d="M11.9057 5.96038C10.2107 5.77094 8.45615 5.77094 6.7612 5.96038C6.34934 6.00641 6.02455 6.33253 5.97822 6.7286C5.77581 8.45919 5.77581 10.2075 5.97822 11.9381C6.02455 12.3341 6.34934 12.6603 6.7612 12.7063C8.45616 12.8957 10.2107 12.8957 11.9057 12.7063C12.3175 12.6603 12.6423 12.3341 12.6886 11.9381C12.891 10.2075 12.891 8.45919 12.6886 6.7286C12.6423 6.33253 12.3175 6.00641 11.9057 5.96038ZM6.53905 3.97275C8.38165 3.76681 10.2852 3.76681 12.1278 3.97275C13.4489 4.12041 14.5188 5.16039 14.6751 6.49627C14.8956 8.38122 14.8956 10.2854 14.6751 12.1704C14.5188 13.5063 13.4489 14.5463 12.1278 14.6939C10.2852 14.8998 8.38165 14.8998 6.53905 14.6939C5.21793 14.5463 4.14801 13.5063 3.99176 12.1704C3.7713 10.2854 3.7713 8.38122 3.99176 6.49627C4.14801 5.16039 5.21793 4.12041 6.53905 3.97275Z" fill="white"/>
<path fill-rule="evenodd" clip-rule="evenodd" d="M11.9057 19.2937C10.2107 19.1043 8.45615 19.1043 6.7612 19.2937C6.34934 19.3397 6.02455 19.6659 5.97822 20.0619C5.77581 21.7925 5.77581 23.5408 5.97822 25.2714C6.02455 25.6675 6.34934 25.9936 6.7612 26.0396C8.45616 26.2291 10.2107 26.2291 11.9057 26.0396C12.3175 25.9936 12.6423 25.6675 12.6886 25.2714C12.891 23.5408 12.891 21.7925 12.6886 20.0619C12.6423 19.6659 12.3175 19.3397 11.9057 19.2937ZM6.53905 17.3061C8.38165 17.1001 10.2852 17.1001 12.1278 17.3061C13.4489 17.4537 14.5188 18.4937 14.6751 19.8296C14.8956 21.7146 14.8956 23.6188 14.6751 25.5037C14.5188 26.8396 13.4489 27.8796 12.1278 28.0272C10.2852 28.2332 8.38165 28.2332 6.53905 28.0272C5.21793 27.8796 4.14801 26.8396 3.99176 25.5037C3.7713 23.6188 3.7713 21.7146 3.99176 19.8296C4.14801 18.4937 5.21793 17.4537 6.53905 17.3061Z" fill="white"/>
<path fill-rule="evenodd" clip-rule="evenodd" d="M25.239 5.96038C23.544 5.77094 21.7895 5.77094 20.0945 5.96038C19.6827 6.00641 19.3579 6.33253 19.3116 6.7286C19.1091 8.45919 19.1091 10.2075 19.3116 11.9381C19.3579 12.3341 19.6827 12.6603 20.0945 12.7063C21.7895 12.8957 23.544 12.8957 25.239 12.7063C25.6508 12.6603 25.9756 12.3341 26.022 11.9381C26.2244 10.2075 26.2244 8.45919 26.022 6.7286C25.9756 6.33253 25.6508 6.00641 25.239 5.96038ZM19.8724 3.97275C21.715 3.76681 23.6185 3.76681 25.4611 3.97275C26.7823 4.12041 27.8522 5.16039 28.0084 6.49627C28.2289 8.38122 28.2289 10.2854 28.0084 12.1704C27.8522 13.5063 26.7823 14.5463 25.4611 14.6939C23.6185 14.8998 21.715 14.8998 19.8724 14.6939C18.5513 14.5463 17.4813 13.5063 17.3251 12.1704C17.1046 10.2854 17.1046 8.38122 17.3251 6.49627C17.4813 5.16039 18.5513 4.12041 19.8724 3.97275Z" fill="white"/>
<path fill-rule="evenodd" clip-rule="evenodd" d="M25.239 19.2937C23.544 19.1043 21.7895 19.1043 20.0945 19.2937C19.6827 19.3397 19.3579 19.6659 19.3116 20.0619C19.1091 21.7925 19.1091 23.5408 19.3116 25.2714C19.3579 25.6675 19.6827 25.9936 20.0945 26.0396C21.7895 26.2291 23.544 26.2291 25.239 26.0396C25.6508 25.9936 25.9756 25.6675 26.022 25.2714C26.2244 23.5408 26.2244 21.7925 26.022 20.0619C25.9756 19.6659 25.6508 19.3397 25.239 19.2937ZM19.8724 17.3061C21.715 17.1001 23.6185 17.1001 25.4611 17.3061C26.7823 17.4537 27.8522 18.4937 28.0084 19.8296C28.2289 21.7146 28.2289 23.6188 28.0084 25.5037C27.8522 26.8396 26.7823 27.8796 25.4611 28.0272C23.6185 28.2332 21.715 28.2332 19.8724 28.0272C18.5513 27.8796 17.4813 26.8396 17.3251 25.5037C17.1046 23.6188 17.1046 21.7146 17.3251 19.8296C17.4813 18.4937 18.5513 17.4537 19.8724 17.3061Z" fill="white"/>
</svg>
