<svg width="32" height="32" viewBox="0 0 32 32" fill="none" xmlns="http://www.w3.org/2000/svg">
<path d="M10.6667 2.66667H4.00008C3.64646 2.66667 3.30732 2.80715 3.05727 3.0572C2.80722 3.30724 2.66675 3.64638 2.66675 4.00001V10.6667C2.66675 11.0203 2.80722 11.3594 3.05727 11.6095C3.30732 11.8595 3.64646 12 4.00008 12C4.3537 12 4.69284 11.8595 4.94289 11.6095C5.19294 11.3594 5.33341 11.0203 5.33341 10.6667V5.33334H10.6667C11.0204 5.33334 11.3595 5.19286 11.6096 4.94281C11.8596 4.69277 12.0001 4.35363 12.0001 4.00001C12.0001 3.64638 11.8596 3.30724 11.6096 3.0572C11.3595 2.80715 11.0204 2.66667 10.6667 2.66667ZM10.6667 26.6667H5.33341V21.3333C5.33341 20.9797 5.19294 20.6406 4.94289 20.3905C4.69284 20.1405 4.3537 20 4.00008 20C3.64646 20 3.30732 20.1405 3.05727 20.3905C2.80722 20.6406 2.66675 20.9797 2.66675 21.3333V28C2.66675 28.3536 2.80722 28.6928 3.05727 28.9428C3.30732 29.1929 3.64646 29.3333 4.00008 29.3333H10.6667C11.0204 29.3333 11.3595 29.1929 11.6096 28.9428C11.8596 28.6928 12.0001 28.3536 12.0001 28C12.0001 27.6464 11.8596 27.3072 11.6096 27.0572C11.3595 26.8071 11.0204 26.6667 10.6667 26.6667ZM28.0001 2.66667H21.3334C20.9798 2.66667 20.6407 2.80715 20.3906 3.0572C20.1406 3.30724 20.0001 3.64638 20.0001 4.00001C20.0001 4.35363 20.1406 4.69277 20.3906 4.94281C20.6407 5.19286 20.9798 5.33334 21.3334 5.33334H26.6667V10.6667C26.6667 11.0203 26.8072 11.3594 27.0573 11.6095C27.3073 11.8595 27.6465 12 28.0001 12C28.3537 12 28.6928 11.8595 28.9429 11.6095C29.1929 11.3594 29.3334 11.0203 29.3334 10.6667V4.00001C29.3334 3.64638 29.1929 3.30724 28.9429 3.0572C28.6928 2.80715 28.3537 2.66667 28.0001 2.66667ZM28.0001 20C27.6465 20 27.3073 20.1405 27.0573 20.3905C26.8072 20.6406 26.6667 20.9797 26.6667 21.3333V26.6667H21.3334C20.9798 26.6667 20.6407 26.8071 20.3906 27.0572C20.1406 27.3072 20.0001 27.6464 20.0001 28C20.0001 28.3536 20.1406 28.6928 20.3906 28.9428C20.6407 29.1929 20.9798 29.3333 21.3334 29.3333H28.0001C28.3537 29.3333 28.6928 29.1929 28.9429 28.9428C29.1929 28.6928 29.3334 28.3536 29.3334 28V21.3333C29.3334 20.9797 29.1929 20.6406 28.9429 20.3905C28.6928 20.1405 28.3537 20 28.0001 20Z" fill="white"/>
<path d="M9 15H13C14.1 15 15 14.1 15 13V9C15 7.9 14.1 7 13 7H9C7.9 7 7 7.9 7 9V13C7 14.1 7.9 15 9 15ZM9 9H13V13H9V9Z" fill="white"/>
<path d="M9 25H13C14.1 25 15 24.1 15 23V19C15 17.9 14.1 17 13 17H9C7.9 17 7 17.9 7 19V23C7 24.1 7.9 25 9 25ZM9 19H13V23H9V19Z" fill="white"/>
<path d="M17 9V13C17 14.1 17.9 15 19 15H23C24.1 15 25 14.1 25 13V9C25 7.9 24.1 7 23 7H19C17.9 7 17 7.9 17 9ZM23 13H19V9H23V13Z" fill="white"/>
<path d="M25 24.5V23.5C25 23.22 24.78 23 24.5 23H23.5C23.22 23 23 23.22 23 23.5V24.5C23 24.78 23.22 25 23.5 25H24.5C24.78 25 25 24.78 25 24.5Z" fill="white"/>
<path d="M17 17.5V18.5C17 18.78 17.22 19 17.5 19H18.5C18.78 19 19 18.78 19 18.5V17.5C19 17.22 18.78 17 18.5 17H17.5C17.22 17 17 17.22 17 17.5Z" fill="white"/>
<path d="M20.5 19H19.5C19.22 19 19 19.22 19 19.5V20.5C19 20.78 19.22 21 19.5 21H20.5C20.78 21 21 20.78 21 20.5V19.5C21 19.22 20.78 19 20.5 19Z" fill="white"/>
<path d="M17 21.5V22.5C17 22.78 17.22 23 17.5 23H18.5C18.78 23 19 22.78 19 22.5V21.5C19 21.22 18.78 21 18.5 21H17.5C17.22 21 17 21.22 17 21.5Z" fill="white"/>
<path d="M19.5 25H20.5C20.78 25 21 24.78 21 24.5V23.5C21 23.22 20.78 23 20.5 23H19.5C19.22 23 19 23.22 19 23.5V24.5C19 24.78 19.22 25 19.5 25Z" fill="white"/>
<path d="M21.5 23H22.5C22.78 23 23 22.78 23 22.5V21.5C23 21.22 22.78 21 22.5 21H21.5C21.22 21 21 21.22 21 21.5V22.5C21 22.78 21.22 23 21.5 23Z" fill="white"/>
<path d="M22.5 17H21.5C21.22 17 21 17.22 21 17.5V18.5C21 18.78 21.22 19 21.5 19H22.5C22.78 19 23 18.78 23 18.5V17.5C23 17.22 22.78 17 22.5 17Z" fill="white"/>
<path d="M23.5 21H24.5C24.78 21 25 20.78 25 20.5V19.5C25 19.22 24.78 19 24.5 19H23.5C23.22 19 23 19.22 23 19.5V20.5C23 20.78 23.22 21 23.5 21Z" fill="white"/>
</svg>
