<svg width="50" height="50" viewBox="0 0 50 50" fill="none" xmlns="http://www.w3.org/2000/svg">
<g clip-path="url(#clip0_115_21)">
<path d="M25.0001 0C24.4501 0 23.9063 0.01875 23.3657 0.053125L23.5657 3.17188C24.521 3.11014 25.4792 3.11014 26.4345 3.17188L26.6345 0.053125C26.0904 0.0178476 25.5453 0.000130037 25.0001 0V0ZM20.1251 0.475C19.0438 0.690625 17.9876 0.975 16.9626 1.31875L17.9657 4.28125C18.8626 3.975 19.7845 3.72813 20.7282 3.54063L20.1251 0.478125V0.475ZM33.0376 1.32187C32.0042 0.971511 30.9487 0.68965 29.8782 0.478125L29.272 3.54063C30.2157 3.72813 31.1376 3.97813 32.0345 4.28125L33.0376 1.32187ZM38.8907 4.2125C37.9837 3.60545 37.038 3.05845 36.0595 2.575L34.6751 5.375C35.5345 5.8 36.3626 6.28125 37.1532 6.80937L38.8907 4.2125ZM13.9376 2.575C12.9563 3.05938 12.0126 3.60625 11.1095 4.2125L12.847 6.80625C13.6412 6.27611 14.469 5.79803 15.3251 5.375L13.9376 2.575ZM8.51572 6.20312C7.69697 6.92188 6.92197 7.69687 6.20322 8.51562L8.55322 10.5781C9.18447 9.85938 9.85947 9.18437 10.5782 8.55313L8.51572 6.20312ZM43.797 8.51562C43.0771 7.6955 42.3046 6.92304 41.4845 6.20312L39.422 8.55313C40.1407 9.18437 40.8188 9.85938 41.447 10.5781L43.797 8.51562ZM47.4251 13.9375C46.9417 12.96 46.3947 12.0153 45.7876 11.1094L43.1938 12.8469C43.722 13.6375 44.2001 14.4656 44.6251 15.325L47.4251 13.9406V13.9375ZM4.2126 11.1094C3.60635 12.0125 3.05635 12.9563 2.5751 13.9406L5.3751 15.325C5.8001 14.4656 6.28135 13.6375 6.80947 12.8469L4.2126 11.1094ZM1.32197 16.9625C0.9716 17.9959 0.689738 19.0514 0.478223 20.1219L3.54072 20.7281C3.72822 19.7844 3.97822 18.8625 4.28135 17.9656L1.32197 16.9625ZM49.5251 20.125C49.3137 19.0534 49.0319 17.997 48.6813 16.9625L45.7188 17.9656C46.0251 18.8625 46.272 19.7844 46.4595 20.7281L49.522 20.1219L49.5251 20.125ZM0.0532227 23.3656C-0.0170898 24.4541 -0.0170898 25.5459 0.0532227 26.6344L3.17197 26.4344C3.11024 25.4791 3.11024 24.5209 3.17197 23.5656L0.0532227 23.3656ZM50.0001 25C50 24.4548 49.9823 23.9097 49.947 23.3656L46.8282 23.5656C46.89 24.5209 46.89 25.4791 46.8282 26.4344L49.947 26.6344C49.9823 26.0903 50 25.5452 50.0001 25ZM0.475098 29.875C0.690723 30.9563 0.975098 32.0125 1.31885 33.0375L4.28135 32.0344C3.97399 31.1308 3.72658 30.208 3.54072 29.2719L0.478223 29.8781L0.475098 29.875ZM48.6782 33.0375C49.0282 32.0125 49.3095 30.9562 49.522 29.8781L46.4595 29.2719C46.272 30.2156 46.022 31.1375 45.7188 32.0344L48.6782 33.0375ZM2.5751 36.0625C3.05867 37.0399 3.60567 37.9846 4.2126 38.8906L6.80635 37.1531C6.27568 36.3592 5.79757 35.5314 5.3751 34.675L2.5751 36.0594V36.0625ZM45.7876 38.8906C46.3938 37.9875 46.9438 37.0437 47.4251 36.0594L44.6251 34.675C44.2001 35.5344 43.7188 36.3625 43.1907 37.1531L45.7876 38.8906ZM6.20322 41.4844C6.92197 42.3031 7.69697 43.0781 8.51572 43.7969L10.5782 41.4469C9.86 40.8165 9.18357 40.1401 8.55322 39.4219L6.20322 41.4844ZM41.4845 43.7969C42.3032 43.0781 43.0782 42.3031 43.797 41.4844L41.447 39.4219C40.8188 40.1406 40.1407 40.8187 39.422 41.4469L41.4845 43.7969ZM36.0626 47.425C37.0438 46.9406 37.9876 46.3938 38.8907 45.7875L37.1532 43.1937C36.359 43.7239 35.5312 44.202 34.6751 44.625L36.0595 47.425H36.0626ZM11.1095 45.7875C12.0126 46.3938 12.9563 46.9437 13.9407 47.425L15.3251 44.625C14.4686 44.2015 13.6408 43.7224 12.847 43.1906L11.1095 45.7875ZM16.9626 48.6781C17.9876 49.0281 19.0438 49.3094 20.122 49.5219L20.7282 46.4594C19.7921 46.2734 18.8693 46.026 17.9657 45.7188L16.9626 48.6781ZM29.8751 49.525C30.9467 49.3136 32.0031 49.0318 33.0376 48.6813L32.0345 45.7188C31.1309 46.026 30.2081 46.2734 29.272 46.4594L29.8782 49.5219L29.8751 49.525ZM23.3657 49.9469C24.4542 50.0173 25.546 50.0173 26.6345 49.9469L26.4345 46.8281C25.4792 46.8899 24.521 46.8899 23.5657 46.8281L23.3657 49.9469ZM26.5626 14.0625C26.5626 13.6481 26.398 13.2507 26.105 12.9576C25.8119 12.6646 25.4145 12.5 25.0001 12.5C24.5857 12.5 24.1883 12.6646 23.8952 12.9576C23.6022 13.2507 23.4376 13.6481 23.4376 14.0625V23.4375H14.0626C13.6482 23.4375 13.2508 23.6021 12.9577 23.8951C12.6647 24.1882 12.5001 24.5856 12.5001 25C12.5001 25.4144 12.6647 25.8118 12.9577 26.1049C13.2508 26.3979 13.6482 26.5625 14.0626 26.5625H23.4376V35.9375C23.4376 36.3519 23.6022 36.7493 23.8952 37.0424C24.1883 37.3354 24.5857 37.5 25.0001 37.5C25.4145 37.5 25.8119 37.3354 26.105 37.0424C26.398 36.7493 26.5626 36.3519 26.5626 35.9375V26.5625H35.9376C36.352 26.5625 36.7494 26.3979 37.0425 26.1049C37.3355 25.8118 37.5001 25.4144 37.5001 25C37.5001 24.5856 37.3355 24.1882 37.0425 23.8951C36.7494 23.6021 36.352 23.4375 35.9376 23.4375H26.5626V14.0625Z" fill="#DFDFDF"/>
</g>
<defs>
<clipPath id="clip0_115_21">
<rect width="50" height="50" fill="white"/>
</clipPath>
</defs>
</svg>
