<svg width="32" height="32" viewBox="0 0 32 32" fill="none" xmlns="http://www.w3.org/2000/svg">
<path d="M16 8.00001C15.6463 8.00001 15.3072 8.14048 15.0572 8.39053C14.8071 8.64058 14.6666 8.97972 14.6666 9.33334V22.6667C14.6666 23.0203 14.8071 23.3594 15.0572 23.6095C15.3072 23.8595 15.6463 24 16 24C16.3536 24 16.6927 23.8595 16.9428 23.6095C17.1928 23.3594 17.3333 23.0203 17.3333 22.6667V9.33334C17.3333 8.97972 17.1928 8.64058 16.9428 8.39053C16.6927 8.14048 16.3536 8.00001 16 8.00001ZM9.33329 16C8.97967 16 8.64053 16.1405 8.39048 16.3905C8.14044 16.6406 7.99996 16.9797 7.99996 17.3333V22.6667C7.99996 23.0203 8.14044 23.3594 8.39048 23.6095C8.64053 23.8595 8.97967 24 9.33329 24C9.68691 24 10.0261 23.8595 10.2761 23.6095C10.5262 23.3594 10.6666 23.0203 10.6666 22.6667V17.3333C10.6666 16.9797 10.5262 16.6406 10.2761 16.3905C10.0261 16.1405 9.68691 16 9.33329 16ZM22.6666 13.3333C22.313 13.3333 21.9739 13.4738 21.7238 13.7239C21.4738 13.9739 21.3333 14.3131 21.3333 14.6667V22.6667C21.3333 23.0203 21.4738 23.3594 21.7238 23.6095C21.9739 23.8595 22.313 24 22.6666 24C23.0202 24 23.3594 23.8595 23.6094 23.6095C23.8595 23.3594 24 23.0203 24 22.6667V14.6667C24 14.3131 23.8595 13.9739 23.6094 13.7239C23.3594 13.4738 23.0202 13.3333 22.6666 13.3333ZM25.3333 2.66667H6.66663C5.60576 2.66667 4.58834 3.0881 3.8382 3.83824C3.08805 4.58839 2.66663 5.60581 2.66663 6.66667V25.3333C2.66663 26.3942 3.08805 27.4116 3.8382 28.1618C4.58834 28.9119 5.60576 29.3333 6.66663 29.3333H25.3333C26.3942 29.3333 27.4116 28.9119 28.1617 28.1618C28.9119 27.4116 29.3333 26.3942 29.3333 25.3333V6.66667C29.3333 5.60581 28.9119 4.58839 28.1617 3.83824C27.4116 3.0881 26.3942 2.66667 25.3333 2.66667ZM26.6666 25.3333C26.6666 25.687 26.5262 26.0261 26.2761 26.2761C26.0261 26.5262 25.6869 26.6667 25.3333 26.6667H6.66663C6.313 26.6667 5.97387 26.5262 5.72382 26.2761C5.47377 26.0261 5.33329 25.687 5.33329 25.3333V6.66667C5.33329 6.31305 5.47377 5.97391 5.72382 5.72386C5.97387 5.47381 6.313 5.33334 6.66663 5.33334H25.3333C25.6869 5.33334 26.0261 5.47381 26.2761 5.72386C26.5262 5.97391 26.6666 6.31305 26.6666 6.66667V25.3333Z" fill="white"/>
</svg>
